<svg width="54" height="79" viewBox="0 0 54 79" fill="none" xmlns="http://www.w3.org/2000/svg">
<path fill-rule="evenodd" clip-rule="evenodd" d="M35.6827 19.4033C35.5252 18.1213 36.5429 16.1624 37.819 15.2457C37.0933 16.6581 36.411 17.9858 35.6827 19.4033ZM32.5958 11.9208C32.0617 13.1329 31.5486 14.155 31.1533 15.2224C29.9666 18.425 29.3529 21.613 31.6318 24.6557C32.073 25.2445 31.6355 25.5142 31.1457 25.719C28.8081 26.6969 26.503 27.7652 24.1272 28.6362C19.823 30.2146 15.4801 31.686 11.1447 33.1759C10.4018 33.4312 9.61546 33.5584 8.60927 33.8035C8.83018 32.8921 9.0021 32.1886 9.17154 31.4843C10.2148 27.1554 11.2411 22.8217 12.3255 18.5037C12.426 18.1042 12.8598 17.5374 13.1988 17.4906C17.8979 16.8469 22.3865 15.4049 26.8659 13.9269C28.7403 13.3085 30.5932 12.624 32.5958 11.9208ZM5.5742 14.2214C6.25387 15.1072 6.92361 15.6785 7.20153 16.4026C7.90804 18.246 7.79805 18.2621 7.17768 20.5353C5.49786 26.6896 3.85102 32.8533 2.20211 39.0162C1.96218 39.9135 1.8064 40.7821 2.61169 41.5719C3.0017 41.9545 3.17356 42.5635 3.51016 43.1928C3.87021 42.7495 4.1533 42.4009 4.62195 41.824C4.52256 42.4942 4.4664 42.8717 4.37702 43.4708C4.74027 43.2998 5.0438 43.2349 5.23004 43.0496C5.45872 42.8227 5.69556 42.513 5.74506 42.2085C6.00567 40.612 7.16318 40.2195 8.49348 39.7703C17.1799 36.8396 25.8402 33.8304 34.5054 30.8366C35.8279 30.3796 37.1304 29.8642 38.4467 29.3887C39.2586 29.0957 39.7527 28.5691 39.7441 27.6643C39.742 27.4509 39.7348 27.1633 39.6066 27.0367C38.6755 26.1188 37.6714 25.2725 36.7852 24.3142C36.5055 24.0113 36.3476 23.4061 36.4196 22.9905C37.1584 18.7328 39.4356 15.3805 42.651 12.6465C44.3664 11.1886 46.1928 9.86401 47.9489 8.45387C48.9442 7.65507 49.7847 6.7265 50.0216 5.39392C50.1968 4.40876 50.1373 3.60041 49.0313 3.09629C48.4107 2.81322 47.9741 2.14425 47.4062 1.71459C44.8232 -0.23979 42.0701 0.219197 39.3072 1.20183C37.1755 1.95981 35.0679 2.7882 32.9386 3.55301C27.9927 5.32915 23.0431 7.09565 18.0871 8.84282C16.838 9.28323 15.5671 9.66622 14.2903 10.0159C13.8861 10.1269 13.385 10.1651 13.0059 10.0244C12.0384 9.66486 11.4204 10.2051 10.7165 10.6892C9.8885 11.2587 9.02397 11.7834 8.13571 12.252C7.09264 12.8023 5.7638 12.9827 5.5742 14.2214Z" fill="#FF7C04"/>
<path fill-rule="evenodd" clip-rule="evenodd" d="M37.0981 71.8385C37.089 72.0603 37.1098 72.1773 37.0761 72.2758C36.6578 73.5041 35.5988 74.1773 34.7008 74.9881C34.6651 75.0203 34.5507 74.986 34.4834 74.958C34.3541 74.9031 34.3378 74.7829 34.4041 74.6823C35.1137 73.608 35.5779 72.3018 37.0981 71.8385ZM43.8329 57.9177C43.6367 57.0053 44.3477 56.3949 44.6055 55.6459C44.7179 55.32 45.278 55.0437 44.7774 54.7218C44.3296 54.4336 43.7726 54.6223 43.4506 55.0567C43.2753 55.2927 43.1745 55.5283 42.8038 55.5138C42.7259 54.9654 42.9765 54.4896 43.3418 54.1892C43.9649 53.6765 43.6637 53.1644 43.2972 52.8762C43.0714 52.6985 42.4759 52.7232 42.1367 53.1184C41.995 53.2833 41.9531 53.7946 41.5021 53.2735C41.3262 53.07 41.0306 53.6974 40.7492 53.9025C40.6064 54.0066 40.5691 54.2453 40.4441 54.388C40.3171 54.5326 40.1502 54.5156 40.0053 54.3713C39.7905 54.1575 40.0089 54.1035 40.1337 54.0217C40.8463 53.5521 41.2601 52.8229 41.842 52.1056C40.9929 51.744 40.6573 52.4329 40.2251 52.7892C39.367 53.4968 38.6591 54.3493 38.0224 55.2611C37.9503 55.3645 37.8206 55.4533 37.6162 55.3923C37.7287 54.7162 38.2562 54.2714 38.6808 53.646C37.793 53.636 37.621 54.3563 37.2986 54.7602C36.3431 55.9579 35.4922 57.2403 34.6266 58.5074C34.3469 58.917 34.0035 59.0089 33.5464 58.9632C32.2355 58.8321 30.9238 58.6995 29.6095 58.6141C28.8205 58.5629 28.0259 58.5634 27.6299 59.4926C27.5322 59.7222 27.1114 59.8408 27.6508 60.0679C27.929 60.185 27.6532 60.4083 27.5669 60.5455C27.308 60.9562 27.2219 61.2201 27.8592 61.3517C28.407 61.4646 28.9865 61.6898 28.426 62.4507C28.3563 62.5453 28.3377 62.758 28.3963 62.8547C28.8889 63.6674 28.7317 64.8203 29.7126 65.3745C30.0737 65.5784 30.1321 65.8667 29.9371 66.2199C29.5204 66.9749 29.9891 67.695 30.0444 68.4295C30.0607 68.6462 30.3373 68.5133 30.4705 68.4561C30.843 68.2962 31.2018 68.1052 31.7087 67.8568C31.3947 68.7235 31.5707 69.535 31.0223 70.2325C30.8316 70.4748 31.0109 71.0295 31.0684 71.4347C31.0903 71.5902 31.2346 71.7402 31.437 71.5544C31.8079 71.2135 32.3648 71.1954 32.6924 70.7508C32.9792 71.1724 32.9249 71.4804 32.5953 71.7561C32.5102 71.8277 32.4362 71.9132 32.357 71.992C31.2505 73.0942 31.253 73.6683 32.372 74.7696C32.4494 74.8462 32.5512 74.9878 32.616 74.9745C33.4789 74.7951 34.1171 75.3905 34.6894 75.7824C35.3894 76.2614 36.1284 76.5337 36.8948 76.7564C37.4018 76.9033 37.8235 76.5197 38.1583 76.152C39.4687 74.7112 40.5219 73.1031 41.1864 71.2657C41.4624 70.503 41.7551 70.2043 42.6769 70.5067C44.3756 71.0646 46.1422 71.4402 47.963 71.1994C50.0937 70.9176 51.6431 68.6132 51.1028 66.5414C51.0475 66.3296 51.02 66.0572 50.7817 65.9871C50.51 65.9068 50.4231 66.2004 50.2773 66.3516C49.8952 66.7479 49.5781 67.2389 48.8221 67.2324C48.9659 66.7197 49.3955 66.5416 49.7007 66.2678C50.4625 65.5851 50.2526 64.3125 49.275 64.0044C48.9122 63.8897 48.9807 63.6508 48.9038 63.4445C48.6229 62.6875 47.9331 62.3482 47.3484 62.6954C47.1416 62.2611 47.2208 61.3086 46.3174 62.1234C46.2623 62.1733 46.1625 62.1734 46.0833 62.1962C45.9199 61.2509 45.2792 62.0188 44.8946 61.8657C44.4329 61.6821 44.6734 61.3648 44.7582 61.0948C45.1495 59.8469 45.7196 58.6611 46.0424 57.3863C46.1241 57.0636 46.2082 56.6947 45.9719 56.525C45.5995 56.2578 45.518 56.7805 45.2889 56.9284C44.8094 57.2378 44.6001 57.9143 43.8329 57.9177Z" fill="#FF7C04"/>
</svg>
