<svg width="162" height="34" viewBox="0 0 162 34" fill="none" xmlns="http://www.w3.org/2000/svg">
<path fill-rule="evenodd" clip-rule="evenodd" d="M17.3022 0.63916C8.4409 0.63916 1.25745 7.82263 1.25745 16.6839V17.1372C1.25745 25.9824 8.41594 33.1592 17.2611 33.1818L148.654 33.5177C150.898 33.5177 152.96 32.8931 154.581 31.8497C156.355 33.0992 158.623 33.6166 161.385 33.4021C161.42 33.3993 161.451 33.3833 161.469 33.3589C161.494 33.3252 161.488 33.2835 161.458 33.2554L161.43 33.2372L161.231 33.1409C159.921 32.4978 159.065 31.8317 158.661 31.1424C158.231 30.4063 158.043 28.8034 158.097 26.3339C158.105 26.2113 158.109 26.0883 158.109 25.9645V16.6839C158.109 7.82263 150.925 0.63916 142.064 0.63916L17.3022 0.63916Z" fill="#F99F82"/>
<path d="M148.654 33.7405H148.654L17.2606 33.4047C8.29253 33.3817 1.03461 26.1053 1.03461 17.1372V16.6839C1.03461 7.69955 8.31783 0.416317 17.3022 0.416317L142.064 0.416317C151.048 0.416317 158.331 7.69956 158.331 16.6839V25.9645C158.331 26.0912 158.328 26.2174 158.32 26.3434C158.293 27.5706 158.326 28.5759 158.419 29.3622C158.512 30.1555 158.662 30.7026 158.854 31.0299C159.223 31.6612 160.03 32.3031 161.328 32.9406C161.328 32.9407 161.329 32.9408 161.329 32.9409L161.527 33.0365L161.541 33.0432L161.554 33.0517L161.581 33.0699L161.596 33.0796L161.609 33.0915C161.715 33.1891 161.748 33.3575 161.648 33.4916L161.648 33.4916C161.585 33.5767 161.49 33.6174 161.402 33.6243C158.665 33.8368 156.383 33.3417 154.575 32.1168C152.937 33.1363 150.881 33.7405 148.654 33.7405ZM161.458 33.2554L161.43 33.2372L148.654 33.5177C150.898 33.5177 152.96 32.8931 154.581 31.8497C156.332 33.0828 158.563 33.6029 161.276 33.4102L161.32 33.4313L161.334 33.441L161.359 33.4041C161.367 33.4034 161.376 33.4028 161.385 33.4021C161.42 33.3993 161.451 33.3833 161.469 33.3589C161.494 33.3252 161.488 33.2835 161.458 33.2554ZM161.297 33.4087C161.303 33.4082 161.31 33.4077 161.317 33.4072L161.315 33.4101L161.307 33.4194C161.303 33.4162 161.3 33.4126 161.297 33.4087Z" stroke="#872E46" stroke-opacity="0.08" stroke-width="0.445686"/>
</svg>
