<svg width="117" height="23" viewBox="0 0 117 23" fill="none" xmlns="http://www.w3.org/2000/svg">
<path fill-rule="evenodd" clip-rule="evenodd" d="M11.0369 0.28833L7.6874 8.89338H0.0351562L6.36349 13.5556L3.86128 22.281L11.0369 16.5431L18.1994 22.281L15.6971 13.5556L22.0255 8.89338H14.3732L11.0369 0.28833ZM34.7616 0.28833L31.412 8.89338H23.7598L30.0881 13.5556L27.5859 22.281L34.7616 16.5431L41.924 22.281L39.4217 13.5556L45.7501 8.89338H38.0977L34.7616 0.28833ZM55.1366 8.89338L58.4862 0.28833L61.8224 8.89338H69.4747L63.1464 13.5556L65.6486 22.281L58.4862 16.5431L51.3105 22.281L53.8128 13.5556L47.4844 8.89338H55.1366ZM82.2108 0.28833L78.8612 8.89338H71.209L77.5374 13.5556L75.0351 22.281L82.2108 16.5431L89.3732 22.281L86.871 13.5556L93.1993 8.89338H85.547L82.2108 0.28833ZM102.586 8.89338L105.935 0.28833L109.272 8.89338H116.924L110.596 13.5556L113.098 22.281L105.935 16.5431L98.7597 22.281L101.262 13.5556L94.9336 8.89338H102.586Z" fill="#FF9500"/>
</svg>
