<svg width="251" height="55" viewBox="0 0 251 55" fill="none" xmlns="http://www.w3.org/2000/svg">
<rect x="0.62146" y="0.96582" width="53.9397" height="53.9397" rx="26.9699" fill="#FF7C04"/>
<g clip-path="url(#clip0_107_2776)">
<g clip-path="url(#clip1_107_2776)">
<g clip-path="url(#clip2_107_2776)">
<path opacity="0.21" d="M34.7747 43.115C35.661 43.1795 36.5732 42.7154 37.0195 41.9483C37.4724 41.1812 37.44 40.1628 36.9355 39.4279C36.0944 38.216 33.8237 38.0549 32.9503 39.3505C31.967 40.8138 33.0474 42.9861 34.7747 43.115Z" stroke="white" stroke-width="1.65844" stroke-miterlimit="10"/>
<path opacity="0.21" d="M22.4467 16.9828C21.6769 16.9828 20.9135 17.0214 20.163 17.1697C19.5355 17.2922 18.9468 17.5178 18.5909 18.085C18.4421 18.3235 18.3387 18.6136 18.2934 18.8908C18.1252 19.9415 18.4357 20.8569 19.1538 21.6497C19.6713 22.2169 20.273 22.6617 20.9717 22.9776C21.1593 23.0614 21.334 23.1581 21.5216 23.2483C21.7609 23.3644 21.8774 23.5706 21.8321 23.8349C21.7609 24.2088 21.6769 24.5827 21.4634 24.9114C21.1399 25.4077 20.6805 25.7301 20.1371 25.9492C19.5031 26.2006 18.8886 26.1942 18.2545 25.9234C17.6464 25.6592 17.0642 25.3497 16.5337 24.9501C15.8544 24.4344 15.2851 23.8156 14.8646 23.0678C14.3018 22.0816 14.0624 21.0115 14.1077 19.8835C14.1336 19.2518 14.2565 18.6394 14.4506 18.0399C14.6188 17.5242 14.8452 17.0472 15.1234 16.5831C15.7768 15.4808 16.6631 14.6171 17.7629 13.9724C18.785 13.3794 19.8784 13.0636 21.0493 13.0507C22.7637 13.0378 24.4781 13.0378 26.1925 13.0507C27.1887 13.0571 28.185 13.1087 29.1813 13.1409C30.1647 13.1731 31.1545 13.2183 32.1378 13.2311C33.8587 13.2505 35.5795 13.2698 37.2939 13.2505C38.0702 13.2376 38.853 13.1409 39.6294 13.0636C39.8558 13.0442 40.0757 12.9798 40.2957 12.9346C40.6903 12.8573 40.8844 12.9475 41.0526 13.3021C41.5119 14.2561 41.4343 15.1907 40.9103 16.0868C40.3992 16.957 39.6164 17.492 38.6978 17.853C37.8826 18.1753 37.0287 18.2655 36.1682 18.3235C35.1525 18.3944 34.1433 18.33 33.1341 18.2075C32.7848 18.1624 32.7136 18.2397 32.6812 18.5878C32.6166 19.226 32.5324 19.8641 32.4613 20.5087C32.3836 21.1404 32.3125 21.7786 32.2413 22.4104C32.2219 22.565 32.2219 22.7197 32.1896 22.8745C32.1572 23.0356 32.2219 23.0807 32.3707 23.1001C32.7848 23.1581 33.1988 23.1323 33.6128 23.0936C34.4862 23.0163 35.3143 22.7713 36.1359 22.4941C36.4076 22.4039 36.6793 22.3136 36.9575 22.2556C37.0546 22.2363 37.1904 22.2943 37.2745 22.3588C37.7015 22.7004 37.8826 23.1581 37.902 23.6931C37.9279 24.3893 37.7985 25.0403 37.4039 25.6269C37.1128 26.0653 36.7181 26.394 36.2523 26.639C35.3725 27.0966 34.4215 27.2578 33.4382 27.2578C33.0565 27.2578 32.6748 27.2385 32.2931 27.2256C32.0408 27.2191 32.0084 27.2513 31.989 27.5027C31.9567 27.8766 31.9308 28.2505 31.8855 28.6243C31.7497 29.8427 31.6203 31.0545 31.4585 32.2728C31.3227 33.33 31.1157 34.3807 30.8051 35.4056C30.6499 35.9148 30.5011 36.4241 30.3134 36.9204C30.0353 37.6746 29.6536 38.3772 29.2136 39.0476C28.5991 39.9823 27.8486 40.8009 26.9494 41.4778C26.0566 42.1417 25.0797 42.6445 23.9735 42.8572C23.2554 42.9926 22.5308 43.0184 21.8192 42.8572C20.7323 42.5994 19.7943 42.0773 19.1279 41.1491C18.7592 40.6334 18.5004 40.0661 18.3451 39.4473C18.0863 38.4224 18.0863 37.3974 18.2998 36.3661C18.4875 35.4636 18.8174 34.6127 19.2573 33.7941C19.736 32.9045 20.3183 32.0923 20.9717 31.3252C21.6121 30.5711 22.3108 29.8684 23.0742 29.2367C23.747 28.6888 24.4393 28.1602 25.125 27.6187C25.4161 27.3931 25.7072 27.1675 25.9919 26.929C26.1407 26.8066 26.1342 26.7808 26.0048 26.639C25.8172 26.4327 25.6167 26.2393 25.4485 26.0137C25.0668 25.5044 24.9051 24.5827 25.2932 23.9961C25.5326 23.6286 25.869 23.3772 26.2766 23.229C26.3801 23.1903 26.4836 23.1645 26.5871 23.1387C26.8847 23.0614 26.9817 22.9583 27.0141 22.6553C27.1046 21.7915 27.2923 20.9471 27.551 20.122C27.7516 19.4774 27.9974 18.8457 28.2238 18.214C28.2756 18.0657 28.3468 17.9174 28.405 17.7692C28.4438 17.666 28.4244 17.5951 28.295 17.5758C28.1333 17.5565 27.978 17.5307 27.8163 17.5113C26.9817 17.4017 26.1537 17.2728 25.3191 17.189C24.3681 17.0859 23.4106 17.0214 22.4532 16.9376C22.4532 16.9505 22.4532 16.9699 22.4467 16.9828ZM26.3995 30.5517C26.3801 30.5388 26.3542 30.5324 26.3348 30.5195C26.1278 30.7128 25.9143 30.8934 25.7202 31.0996C25.0345 31.8409 24.4069 32.6274 23.8376 33.4653C23.236 34.3484 22.699 35.2767 22.3238 36.2823C22.1297 36.7979 21.9744 37.3265 22.0133 37.8809C22.065 38.5642 22.3626 38.9832 23.1001 39.183C23.4106 39.2668 23.7018 39.1636 23.9541 38.9896C24.3875 38.6931 24.6528 38.2547 24.8792 37.7906C25.1574 37.2169 25.3773 36.6239 25.5197 36.0051C25.7202 35.122 25.9208 34.2389 26.0695 33.3428C26.2054 32.5436 26.2701 31.7378 26.3671 30.932C26.3801 30.8095 26.3865 30.6806 26.3995 30.5517Z" stroke="white" stroke-width="1.65844" stroke-miterlimit="10"/>
<path d="M21.628 16.2286C20.8581 16.2286 20.0947 16.2673 19.3443 16.4155C18.7168 16.538 18.1281 16.7636 17.7722 17.3309C17.6234 17.5694 17.5199 17.8594 17.4746 18.1367C17.3064 19.1874 17.617 20.1027 18.3351 20.8956C18.8526 21.4628 19.4543 21.9076 20.153 22.2234C20.3406 22.3072 20.5153 22.4039 20.7029 22.4942C20.9422 22.6102 21.0587 22.8165 21.0134 23.0808C20.9422 23.4547 20.8581 23.8285 20.6446 24.1573C20.3212 24.6536 19.8618 24.9759 19.3184 25.1951C18.6844 25.4465 18.0698 25.44 17.4358 25.1693C16.8277 24.905 16.2455 24.5956 15.715 24.1959C15.0357 23.6802 14.4664 23.0614 14.0459 22.3137C13.483 21.3275 13.2437 20.2574 13.289 19.1293C13.3148 18.4976 13.4377 17.8852 13.6318 17.2857C13.8 16.7701 14.0265 16.293 14.3046 15.8289C14.9581 14.7267 15.8444 13.8629 16.9441 13.2183C17.9663 12.6253 19.0596 12.303 20.2306 12.2965C21.945 12.2836 23.6594 12.2836 25.3738 12.2965C26.37 12.303 27.3663 12.3545 28.3626 12.3868C29.3459 12.419 30.3358 12.4641 31.3191 12.477C33.0399 12.4963 34.7608 12.5157 36.4752 12.4963C37.2515 12.4834 38.0343 12.3868 38.8106 12.3094C39.037 12.2901 39.257 12.2256 39.477 12.1805C39.8716 12.1031 40.0657 12.1934 40.2339 12.5479C40.6932 13.5019 40.6156 14.4366 40.0916 15.3326C39.5805 16.2028 38.7977 16.7378 37.879 17.0988C37.0639 17.4211 36.2099 17.5114 35.3495 17.5694C34.3338 17.6403 33.3246 17.5758 32.3154 17.4534C31.966 17.4082 31.8949 17.4856 31.8625 17.8337C31.7978 18.4718 31.7137 19.11 31.6426 19.7546C31.5649 20.3863 31.4938 21.0245 31.4226 21.6562C31.4032 21.8109 31.4032 21.9656 31.3708 22.1203C31.3385 22.2815 31.4032 22.3266 31.552 22.3459C31.966 22.4039 32.3801 22.3782 32.7941 22.3395C33.6675 22.2621 34.4956 22.0172 35.3172 21.74C35.5889 21.6497 35.8606 21.5595 36.1388 21.5015C36.2358 21.4821 36.3717 21.5402 36.4558 21.6046C36.8828 21.9463 37.0639 22.4039 37.0833 22.939C37.1092 23.6351 36.9798 24.2862 36.5852 24.8728C36.2941 25.3111 35.8994 25.6399 35.4336 25.8848C34.5538 26.3425 33.6028 26.5036 32.6194 26.5036C32.2378 26.5036 31.8561 26.4843 31.4744 26.4714C31.222 26.4649 31.1897 26.4972 31.1703 26.7486C31.138 27.1224 31.1121 27.4963 31.0668 27.8702C30.9309 29.0885 30.8015 30.3003 30.6398 31.5187C30.5039 32.5758 30.2969 33.6265 29.9864 34.6514C29.8311 35.1607 29.6823 35.6699 29.4947 36.1663C29.2166 36.9205 28.8348 37.6231 28.3949 38.2935C27.7804 39.2281 27.0299 40.0468 26.1307 40.7236C25.2379 41.3876 24.261 41.8904 23.1548 42.1031C22.4366 42.2385 21.7121 42.2643 21.0004 42.1031C19.9136 41.8452 18.9755 41.3231 18.3092 40.3949C17.9404 39.8792 17.6816 39.3119 17.5264 38.6931C17.2676 37.6682 17.2676 36.6433 17.4811 35.6119C17.6687 34.7095 17.9987 33.8586 18.4386 33.0399C18.9173 32.1504 19.4995 31.3382 20.153 30.5711C20.7934 29.8169 21.4921 29.1143 22.2555 28.4826C22.9283 27.9346 23.6205 27.4061 24.3063 26.8646C24.5974 26.639 24.8885 26.4134 25.1732 26.1749C25.322 26.0524 25.3155 26.0266 25.1861 25.8848C24.9985 25.6785 24.798 25.4851 24.6298 25.2595C24.2481 24.7503 24.0863 23.8285 24.4745 23.2419C24.7139 22.8745 25.0503 22.6231 25.4578 22.4748C25.5614 22.4362 25.6648 22.4104 25.7684 22.3846C26.0659 22.3072 26.163 22.2041 26.1953 21.9012C26.2859 21.0374 26.4735 20.1929 26.7323 19.3678C26.9329 18.7232 27.1787 18.0915 27.4051 17.4598C27.4569 17.3115 27.528 17.1633 27.5863 17.015C27.6251 16.9119 27.6057 16.841 27.4763 16.8216C27.3145 16.8023 27.1593 16.7765 26.9976 16.7572C26.163 16.6476 25.3349 16.5187 24.5004 16.4349C23.5494 16.3317 22.5919 16.2673 21.6345 16.1835C21.6345 16.1964 21.628 16.2093 21.628 16.2286ZM25.5743 29.7976C25.5549 29.7847 25.529 29.7782 25.5096 29.7653C25.3026 29.9587 25.0891 30.1392 24.895 30.3455C24.2092 31.0868 23.5817 31.8732 23.0124 32.7112C22.4108 33.5943 21.8738 34.5225 21.4986 35.5281C21.3045 36.0438 21.1492 36.5724 21.188 37.1267C21.2398 37.81 21.5374 38.229 22.2749 38.4288C22.5855 38.5126 22.8766 38.4095 23.1289 38.2354C23.5623 37.939 23.8275 37.5006 24.054 37.0365C24.3322 36.4628 24.5521 35.8698 24.6945 35.2509C24.895 34.3678 25.0955 33.4847 25.2444 32.5887C25.3802 31.7894 25.4449 30.9837 25.542 30.1779C25.5614 30.0554 25.5678 29.9265 25.5743 29.7976Z" fill="white"/>
<path d="M34.2559 42.6768C35.1422 42.7413 36.0544 42.2772 36.5007 41.51C36.9536 40.743 36.9213 39.7245 36.4167 38.9897C35.5756 37.7778 33.3049 37.6166 32.4315 38.9123C31.4482 40.3691 32.5286 42.5479 34.2559 42.6768Z" fill="white"/>
</g>
</g>
</g>
<path d="M75.4035 29.9062V25.0832H84.9117V29.9062H75.4035ZM76.8848 38.7943H71.8551V15.3338H86.6342V20.1913H75.1279L76.8848 18.0898V38.7943Z" fill="#27131F"/>
<path d="M93.2725 38.9665C92.4228 38.9665 91.6419 38.7943 90.9299 38.4498C90.218 38.1053 89.6438 37.577 89.2074 36.8651C88.7711 36.1301 88.5529 35.1541 88.5529 33.9368V15.3338H93.5481V32.1454C93.5481 32.9952 93.6974 33.5464 93.996 33.799C94.3175 34.0287 94.7194 34.1435 95.2017 34.1435V38.7943C94.9721 38.8402 94.662 38.8747 94.2716 38.8976C93.9041 38.9436 93.5711 38.9665 93.2725 38.9665Z" fill="#27131F"/>
<path d="M102.248 38.7943H97.2181V21.9482H102.248V38.7943ZM96.7703 16.6429C96.7703 15.7472 97.0344 15.0238 97.5626 14.4726C98.1138 13.9214 98.8373 13.6458 99.733 13.6458C100.629 13.6458 101.341 13.9214 101.869 14.4726C102.42 15.0238 102.696 15.7472 102.696 16.6429C102.696 17.5156 102.42 18.2276 101.869 18.7788C101.341 19.307 100.629 19.5712 99.733 19.5712C98.8373 19.5712 98.1138 19.307 97.5626 18.7788C97.0344 18.2276 96.7703 17.5156 96.7703 16.6429Z" fill="#27131F"/>
<path d="M108.928 21.9482L110.237 26.599V38.7943H105.207V21.9482H108.928ZM109.135 29.3894L108.273 29.0105V25.1176L108.583 24.7042C108.859 24.3138 109.249 23.8659 109.755 23.3607C110.283 22.8554 110.892 22.4305 111.581 22.086C112.293 21.7185 113.016 21.5348 113.751 21.5348C114.118 21.5348 114.451 21.5578 114.75 21.6037C115.049 21.6496 115.29 21.73 115.473 21.8449V26.4267H114.337C112.867 26.4267 111.707 26.6679 110.857 27.1502C110.03 27.6095 109.456 28.3559 109.135 29.3894Z" fill="#27131F"/>
<path d="M124.847 39.0699C122.987 39.0699 121.517 38.6105 120.437 37.6919C119.381 36.7732 118.853 35.2689 118.853 33.1789V22.1549L118.784 21.9482L119.817 17.8831H123.882V32.0765C123.882 32.8574 124.066 33.4201 124.434 33.7646C124.801 34.0861 125.283 34.2469 125.881 34.2469C126.225 34.2469 126.547 34.2239 126.845 34.178C127.167 34.1091 127.431 34.0402 127.638 33.9713V38.6909C127.247 38.8058 126.822 38.8976 126.363 38.9665C125.926 39.0354 125.421 39.0699 124.847 39.0699ZM116.235 26.5645V21.9482H127.638V26.5645H116.235Z" fill="#27131F"/>
<path d="M135.99 39.2077C134.75 39.2077 133.74 39.0239 132.959 38.6565C132.201 38.289 131.604 37.7837 131.167 37.1407C130.754 36.4746 130.467 35.7282 130.306 34.9014C130.168 34.0516 130.099 33.156 130.099 32.2143V21.9482H135.129V31.9387C135.129 32.8803 135.324 33.5119 135.715 33.8335C136.105 34.132 136.587 34.2813 137.162 34.2813C137.667 34.2813 138.161 34.2009 138.643 34.0402C139.125 33.8564 139.596 33.6038 140.055 33.2823C140.515 32.9378 140.928 32.5244 141.296 32.0421L142.157 34.5914H140.744V21.9482H145.809V38.7943H142.053L141.02 35.4526L142.742 35.5904C142.191 36.2335 141.548 36.8421 140.813 37.4163C140.101 37.9675 139.343 38.4038 138.54 38.7254C137.736 39.0469 136.886 39.2077 135.99 39.2077Z" fill="#27131F"/>
<path d="M157.228 38.7943V15.3338H165.427C167.861 15.3338 169.951 15.8046 171.697 16.7463C173.465 17.6649 174.82 19.0085 175.762 20.7769C176.727 22.5224 177.209 24.6238 177.209 27.0813C177.209 29.5617 176.727 31.6746 175.762 33.4201C174.82 35.1655 173.465 36.4976 171.697 37.4163C169.928 38.3349 167.827 38.7943 165.393 38.7943H157.228ZM162.258 35.8316L160.26 33.9368H165.048C166.449 33.9368 167.666 33.7071 168.7 33.2478C169.756 32.7655 170.572 32.0191 171.146 31.0086C171.743 29.998 172.041 28.6889 172.041 27.0813C172.041 25.4966 171.754 24.1989 171.18 23.1884C170.606 22.1779 169.791 21.4315 168.734 20.9492C167.701 20.4439 166.483 20.1913 165.083 20.1913H160.018L162.258 18.7099V35.8316Z" fill="#27131F"/>
<path d="M183.971 39.2421C182.753 39.2421 181.674 39.0125 180.732 38.5531C179.814 38.0708 179.102 37.4048 178.596 36.555C178.091 35.7053 177.838 34.7177 177.838 33.5923C177.838 32.398 178.114 31.3875 178.665 30.5607C179.216 29.7109 179.951 29.0564 180.87 28.5971C181.812 28.1377 182.857 27.9081 184.005 27.9081C185.682 27.9081 187.037 28.287 188.07 29.0449C189.104 29.8028 189.793 30.8937 190.137 32.3177L187.967 31.9387V28.0114C187.967 27.3913 187.749 26.8516 187.312 26.3923C186.876 25.9329 186.175 25.7033 185.211 25.7033C184.591 25.7033 183.879 25.7836 183.075 25.9444C182.271 26.0822 181.444 26.3578 180.594 26.7712L179.113 23.1884C180.124 22.6831 181.203 22.2812 182.351 21.9827C183.523 21.6841 184.717 21.5348 185.934 21.5348C187.496 21.5348 188.805 21.8104 189.862 22.3616C190.918 22.9128 191.699 23.6937 192.204 24.7042C192.732 25.7147 192.996 26.886 192.996 28.2181V38.7943H188.897L187.898 35.5215L190.137 34.8325C189.77 36.2105 189.069 37.29 188.036 38.0708C187.002 38.8517 185.647 39.2421 183.971 39.2421ZM185.521 35.6593C186.279 35.6593 186.876 35.4641 187.312 35.0737C187.772 34.6832 188.001 34.1894 188.001 33.5923C188.001 32.9492 187.772 32.444 187.312 32.0765C186.876 31.709 186.279 31.5253 185.521 31.5253C184.763 31.5253 184.166 31.709 183.729 32.0765C183.293 32.444 183.075 32.9492 183.075 33.5923C183.075 34.1894 183.293 34.6832 183.729 35.0737C184.166 35.4641 184.763 35.6593 185.521 35.6593Z" fill="#27131F"/>
<path d="M202.985 39.0699C201.125 39.0699 199.655 38.6105 198.576 37.6919C197.519 36.7732 196.991 35.2689 196.991 33.1789V22.1549L196.922 21.9482L197.956 17.8831H202.021V32.0765C202.021 32.8574 202.204 33.4201 202.572 33.7646C202.939 34.0861 203.422 34.2469 204.019 34.2469C204.363 34.2469 204.685 34.2239 204.983 34.178C205.305 34.1091 205.569 34.0402 205.776 33.9713V38.6909C205.385 38.8058 204.96 38.8976 204.501 38.9665C204.065 39.0354 203.56 39.0699 202.985 39.0699ZM194.373 26.5645V21.9482H205.776V26.5645H194.373Z" fill="#27131F"/>
<path d="M213.543 38.7943H208.513V21.9482H213.543V38.7943ZM208.065 16.6429C208.065 15.7472 208.33 15.0238 208.858 14.4726C209.409 13.9214 210.132 13.6458 211.028 13.6458C211.924 13.6458 212.636 13.9214 213.164 14.4726C213.715 15.0238 213.991 15.7472 213.991 16.6429C213.991 17.5156 213.715 18.2276 213.164 18.7788C212.636 19.307 211.924 19.5712 211.028 19.5712C210.132 19.5712 209.409 19.307 208.858 18.7788C208.33 18.2276 208.065 17.5156 208.065 16.6429Z" fill="#27131F"/>
<path d="M226.872 21.5348C227.997 21.5348 228.916 21.73 229.628 22.1205C230.34 22.4879 230.88 23.0047 231.247 23.6707C231.637 24.3367 231.89 25.0946 232.005 25.9444C232.143 26.7712 232.212 27.6325 232.212 28.5282V38.7943H227.182V28.8038C227.182 27.8392 227.01 27.2076 226.665 26.909C226.321 26.5875 225.861 26.4267 225.287 26.4267C224.805 26.4267 224.3 26.5301 223.771 26.7368C223.266 26.9205 222.772 27.1846 222.29 27.5291C221.808 27.8736 221.383 28.264 221.015 28.7004L220.12 26.1511H221.532V38.7943H216.502V21.9482H220.223L221.257 25.2899L219.534 25.1521C220.131 24.486 220.809 23.8774 221.567 23.3262C222.324 22.775 223.151 22.3386 224.047 22.0171C224.943 21.6956 225.884 21.5348 226.872 21.5348Z" fill="#27131F"/>
<path d="M242.197 45.6843C241.301 45.6843 240.383 45.5465 239.441 45.2709C238.522 45.0182 237.673 44.5704 236.892 43.9273C236.111 43.3072 235.456 42.4804 234.928 41.4469L234.652 40.8613L238.27 39.001C238.844 39.8967 239.418 40.5397 239.992 40.9302C240.589 41.3206 241.347 41.5158 242.266 41.5158C243.322 41.5158 244.184 41.1713 244.85 40.4823C245.516 39.8163 245.849 38.8058 245.849 37.4507V32.9033H246.193V26.1856H245.849L247.123 21.9482H250.878V36.3828C250.878 38.3579 250.534 40.046 249.845 41.4469C249.156 42.8479 248.157 43.9044 246.848 44.6163C245.562 45.3283 244.011 45.6843 242.197 45.6843ZM241.542 37.8986C240.027 37.8986 238.683 37.5541 237.512 36.8651C236.363 36.1761 235.445 35.2115 234.756 33.9713C234.09 32.7311 233.757 31.3186 233.757 29.7339C233.757 28.1262 234.078 26.7138 234.721 25.4966C235.387 24.2564 236.306 23.2918 237.477 22.6028C238.649 21.8908 239.981 21.5348 241.474 21.5348C242.875 21.5348 244.103 21.8793 245.16 22.5683C246.216 23.2573 247.043 24.2104 247.64 25.4277C248.237 26.6449 248.536 28.0803 248.536 29.7339C248.536 31.4334 248.249 32.8918 247.675 34.1091C247.1 35.3263 246.285 36.2679 245.229 36.934C244.195 37.577 242.966 37.8986 241.542 37.8986ZM242.507 33.489C243.564 33.489 244.425 33.133 245.091 32.421C245.78 31.709 246.124 30.8133 246.124 29.7339C246.124 28.6085 245.78 27.6899 245.091 26.9779C244.425 26.2659 243.564 25.91 242.507 25.91C241.451 25.91 240.578 26.2659 239.889 26.9779C239.223 27.6899 238.89 28.6085 238.89 29.7339C238.89 30.8133 239.223 31.709 239.889 32.421C240.578 33.133 241.451 33.489 242.507 33.489Z" fill="#27131F"/>
<defs>
<clipPath id="clip0_107_2776">
<rect width="53.9397" height="32.3396" fill="white" transform="translate(0.621582 11.7397)"/>
</clipPath>
<clipPath id="clip1_107_2776">
<rect width="53.9397" height="32.3396" fill="white" transform="translate(0.621582 11.7397)"/>
</clipPath>
<clipPath id="clip2_107_2776">
<rect width="29.4374" height="32.3396" fill="white" transform="translate(12.871 11.7397)"/>
</clipPath>
</defs>
</svg>
