<svg width="67" height="78" viewBox="0 0 67 78" fill="none" xmlns="http://www.w3.org/2000/svg">
<path fill-rule="evenodd" clip-rule="evenodd" d="M10.07 67.3719C10.9166 64.6013 10.8255 62.0829 9.53359 59.6835C8.57719 57.9069 7.2969 57.8249 5.99341 59.3927C5.04074 60.5384 4.47867 61.8928 4.03548 63.3003C3.36986 65.4135 4.12702 66.8694 6.19305 67.6282C7.02394 67.9335 7.504 67.7368 7.66305 66.8993C7.80057 66.1744 8.07187 65.5005 8.86921 65.5345C9.76057 65.573 9.69305 66.4561 9.86536 67.084C9.87447 67.1175 9.90719 67.1453 10.07 67.3719ZM13.4975 61.636C13.5617 66.0862 12.3717 69.6645 10.051 72.8778C9.54233 73.5832 8.97073 74.2405 8.2173 74.6953C7.15943 75.3345 5.99262 74.9874 5.66913 73.8292C5.48771 73.1781 5.1696 73.0402 4.60008 72.9424C2.03617 72.5026 0.093154 70.6358 0.0127993 68.0822C-0.154124 62.7908 1.49191 58.0109 5.1054 54.1311C7.7302 51.3133 10.6081 51.9839 12.2587 55.5054C13.2378 57.595 13.4955 59.8301 13.4975 61.636Z" fill="#FF7C04"/>
<path fill-rule="evenodd" clip-rule="evenodd" d="M38.9921 52.578C38.9395 51.6775 38.7344 50.6387 37.7789 50.1818C36.9016 49.7622 36.209 50.531 35.6499 51.1092C33.3482 53.488 31.9171 56.3567 31.1173 59.5469C30.9093 60.3749 31.425 60.7808 32.1499 61.0248C32.8358 61.2559 33.2852 61.1321 33.5648 60.3944C33.7437 59.9226 33.9972 59.3514 34.6591 59.445C35.2357 59.5266 35.1185 60.1322 35.2837 60.5153C35.3678 60.7096 35.2999 61.0053 35.5844 61.0521C35.8367 61.0935 36.0148 60.8777 36.1105 60.6926C37.4222 58.1552 38.7117 55.6074 38.9921 52.578ZM27.3987 61.2033C27.5888 57.1408 29.1259 53.4726 30.7939 49.8467C31.783 47.6974 33.0359 45.7925 35.2225 44.6187C37.1465 43.5857 38.9333 43.934 39.9995 45.8865C41.6766 48.9591 42.3343 52.2168 41.298 55.6663C40.3938 58.6767 39.0124 61.4344 36.9232 63.8161C36.6034 64.1802 36.1967 64.5534 35.7978 64.4428C34.9305 64.2025 34.5995 64.8184 34.2947 65.3002C33.4692 66.607 32.2692 66.9197 30.89 66.6832C29.3661 66.4218 28.1438 65.6841 27.6236 64.1039C27.3117 63.1571 27.2587 62.1903 27.3987 61.2033Z" fill="#FF7C04"/>
<path fill-rule="evenodd" clip-rule="evenodd" d="M12.3605 39.8947C12.696 39.5612 12.7117 39.2129 12.7759 38.8848C12.8488 38.5133 13.1156 38.3033 13.4179 38.4822C14.1631 38.9242 14.523 38.3911 14.9331 37.9719C16.0398 36.8416 17.0376 35.5952 17.7787 34.2193C18.5822 32.7281 19.433 31.1881 19.2155 29.3582C19.0805 28.2204 18.9753 26.9707 17.714 26.5942C16.4217 26.2086 15.445 27.054 14.598 27.957C14.5471 28.0112 14.5139 28.0816 14.4659 28.1392C12.619 30.3697 11.7943 33.074 11.1328 35.797C10.7762 37.2661 11.1705 38.7469 12.3605 39.8947ZM7.47626 38.7195C7.55579 35.2137 8.71845 32.0074 10.0277 28.8031C10.9311 26.5917 12.1406 24.6363 13.6847 22.8494C15.0367 21.2858 17.806 20.6612 19.7072 21.7779C20.4192 22.1962 20.5456 23.1215 21.323 23.4363C20.4192 24.4184 21.7836 24.8285 21.8648 25.5757C22.1957 28.6072 22.1013 31.5215 20.6785 34.3671C19.286 37.1534 17.4639 39.4995 14.9845 41.351C14.7086 41.5572 14.6366 41.785 14.6059 42.1056C14.5632 42.5488 14.5048 43.0119 14.3363 43.4178C13.3674 45.7535 11.7467 46.1342 9.85585 44.4571C8.14354 42.9382 7.41413 40.9852 7.47626 38.7195Z" fill="#FF7C04"/>
<path fill-rule="evenodd" clip-rule="evenodd" d="M72.2305 36.5615C72.1849 35.9858 72.2773 35.3251 71.6904 35.0373C71.1436 34.7693 70.7058 35.2551 70.2978 35.5679C69.7266 36.0061 69.2577 36.5545 68.8771 37.1617C67.3636 39.5769 66.3662 42.1876 65.9288 45.0125C65.8182 45.729 65.8037 46.6171 66.5087 46.7521C67.2534 46.8946 68.3225 47.0686 68.7781 45.9535C68.9048 45.6429 69.0635 45.3335 69.2652 45.0667C71.1676 42.5434 71.6046 39.5214 72.2305 36.5615ZM63.0092 45.5323C63.2564 41.6368 64.4046 37.7172 66.512 34.0809C66.7755 33.6274 67.0948 33.2065 67.3591 32.7534C68.4281 30.9214 70.1156 30.1969 72.1352 30.1472C72.8328 30.1303 73.2217 30.6828 73.5365 31.2643C74.6755 33.3689 74.9659 35.6155 74.5007 37.9243C73.5787 42.4987 71.8635 46.7625 69.2768 50.6643C68.8146 51.3622 68.2206 51.9346 67.6122 52.4826C66.9246 53.1014 66.3393 52.8674 66.1065 51.9578C66.027 51.6459 66.0498 51.2839 65.6149 51.1646C63.8802 50.6883 63.6487 49.1177 63.2183 47.7384C63.0332 47.1436 63.0891 46.4738 63.0092 45.5323Z" fill="#FF7C04"/>
<path fill-rule="evenodd" clip-rule="evenodd" d="M55.7094 18.4109C54.7858 19.2318 54.4701 20.2247 53.9764 21.1334C53.0693 22.8051 52.6588 24.5804 52.4091 26.4228C52.3676 26.7293 52.3846 27.0573 52.7479 27.1654C53.1029 27.2711 53.2876 26.9757 53.4458 26.7396C53.5891 26.5251 53.5999 26.1341 53.7792 26.0471C54.3852 25.7522 53.9743 24.2635 55.2704 24.795C55.436 24.8625 55.5901 24.5634 55.393 24.4172C54.5323 23.7806 55.0811 23.0831 55.3159 22.4398C55.7761 21.1777 56.1066 19.9194 55.7094 18.4109ZM56.6049 13.3543C55.3689 13.9321 55.8759 14.5315 56.5917 14.804C58.2273 15.4278 58.3297 16.9334 58.6295 18.2394C58.8213 19.0744 58.6598 20.0515 58.4407 20.9097C57.4495 24.7941 55.6643 28.3343 53.5166 31.6943C53.1633 32.2477 52.5412 32.6084 52.1871 33.2008C52.0338 33.4563 51.7372 33.6216 51.4042 33.5089C51.0753 33.3975 50.9792 33.1651 51.0157 32.804C51.0832 32.1305 50.79 31.6222 50.2946 31.1347C48.9302 29.7935 49.0578 27.9913 49.2019 26.3461C49.5693 22.1449 50.9859 18.251 53.2793 14.7116C53.9776 13.6335 54.9518 12.8059 56.6049 13.3543Z" fill="#FF7C04"/>
<path fill-rule="evenodd" clip-rule="evenodd" d="M59.1617 68.611C59.2499 68.9175 59.3382 69.2244 59.4666 69.6717C60.4491 68.4279 61.1105 67.1385 61.5115 65.7348C61.777 64.8049 61.0521 64.0005 60.0804 64.0519C59.1012 64.1032 58.3768 64.6467 57.852 65.4187C56.4678 67.4558 55.851 69.8039 55.4956 72.1772C55.39 72.8847 55.4745 73.8419 55.9144 74.6227C56.2946 75.2966 55.5254 76.9952 54.7314 77.2508C53.7373 77.571 53.2656 76.8523 52.9272 76.1275C52.2599 74.6997 52.4931 73.1502 52.6298 71.6806C52.9396 68.3575 53.9395 65.2162 55.6547 62.33C56.4181 61.0452 57.2941 59.8643 58.9202 59.6307C61.6908 59.2335 62.827 59.5246 63.5469 62.3081C64.4958 65.9758 62.484 71.0643 59.3568 73.2641C59.0105 73.5081 58.6605 73.7139 58.2103 73.5396C57.6967 73.3411 57.7712 72.8694 57.7539 72.4833C57.6892 71.0461 58.3329 69.8209 58.8776 68.57C58.9724 68.5836 59.0669 68.5973 59.1617 68.611Z" fill="#FF7C04"/>
<path fill-rule="evenodd" clip-rule="evenodd" d="M39.9965 0.39345C40.8833 0.316822 41.5319 0.664753 41.5713 1.51138C41.64 3.00706 41.973 4.40126 41.5373 6.0386C40.8042 8.79345 39.6779 11.272 38.1292 13.5762C37.4454 14.5931 37.7242 15.7234 37.2926 16.7399C36.933 17.5865 36.5097 18.359 35.8441 18.9919C35.4129 19.402 34.954 19.7093 34.3393 19.356C33.7623 19.0246 33.5213 18.6601 33.4852 17.862C33.2599 12.8684 35.1503 8.41653 36.834 3.90173C37.2068 2.90351 37.8016 2.04404 38.4217 1.18913C38.8379 0.615877 39.3412 0.324278 39.9965 0.39345Z" fill="#FF7C04"/>
</svg>
